<mxfile host="app.diagrams.net" agent="Mozilla/5.0 (Windows NT 10.0; Win64; x64; rv:136.0) Gecko/20100101 Firefox/136.0" version="26.1.1">
  <diagram name="Page-1" id="ESAI7z-HyepYXW7znmA7">
    <mxGraphModel dx="733" dy="400" grid="1" gridSize="10" guides="1" tooltips="1" connect="1" arrows="1" fold="1" page="1" pageScale="1" pageWidth="595" pageHeight="842" math="0" shadow="0">
      <root>
        <mxCell id="0" />
        <mxCell id="1" parent="0" />
        <mxCell id="pq8o-XT3RomVm82ZCN2M-4" value="" style="shape=cube;whiteSpace=wrap;html=1;boundedLbl=1;backgroundOutline=1;darkOpacity=0.05;darkOpacity2=0.1;size=20;rotation=0;" vertex="1" parent="1">
          <mxGeometry x="50" y="160" width="30" height="120" as="geometry" />
        </mxCell>
        <mxCell id="pq8o-XT3RomVm82ZCN2M-5" value="" style="shape=cube;whiteSpace=wrap;html=1;boundedLbl=1;backgroundOutline=1;darkOpacity=0.05;darkOpacity2=0.1;size=20;rotation=0;" vertex="1" parent="1">
          <mxGeometry x="40" y="160" width="30" height="120" as="geometry" />
        </mxCell>
        <mxCell id="pq8o-XT3RomVm82ZCN2M-6" value="" style="shape=cube;whiteSpace=wrap;html=1;boundedLbl=1;backgroundOutline=1;darkOpacity=0.05;darkOpacity2=0.1;size=20;rotation=0;" vertex="1" parent="1">
          <mxGeometry x="30" y="160" width="30" height="120" as="geometry" />
        </mxCell>
        <mxCell id="pq8o-XT3RomVm82ZCN2M-7" value="" style="shape=cube;whiteSpace=wrap;html=1;boundedLbl=1;backgroundOutline=1;darkOpacity=0.05;darkOpacity2=0.1;size=20;rotation=0;" vertex="1" parent="1">
          <mxGeometry x="20" y="160" width="30" height="120" as="geometry" />
        </mxCell>
        <mxCell id="pq8o-XT3RomVm82ZCN2M-8" value="" style="shape=cube;whiteSpace=wrap;html=1;boundedLbl=1;backgroundOutline=1;darkOpacity=0.05;darkOpacity2=0.1;size=20;rotation=0;" vertex="1" parent="1">
          <mxGeometry x="100" y="25" width="30" height="120" as="geometry" />
        </mxCell>
        <mxCell id="pq8o-XT3RomVm82ZCN2M-9" value="" style="shape=cube;whiteSpace=wrap;html=1;boundedLbl=1;backgroundOutline=1;darkOpacity=0.05;darkOpacity2=0.1;size=20;rotation=0;" vertex="1" parent="1">
          <mxGeometry x="10" y="160" width="30" height="120" as="geometry" />
        </mxCell>
        <mxCell id="pq8o-XT3RomVm82ZCN2M-10" value="" style="shape=cube;whiteSpace=wrap;html=1;boundedLbl=1;backgroundOutline=1;darkOpacity=0.05;darkOpacity2=0.1;size=20;rotation=0;" vertex="1" parent="1">
          <mxGeometry x="100" y="305" width="30" height="120" as="geometry" />
        </mxCell>
        <mxCell id="pq8o-XT3RomVm82ZCN2M-11" value="" style="shape=cube;whiteSpace=wrap;html=1;boundedLbl=1;backgroundOutline=1;darkOpacity=0.05;darkOpacity2=0.1;size=20;rotation=0;" vertex="1" parent="1">
          <mxGeometry x="100" y="155" width="30" height="120" as="geometry" />
        </mxCell>
        <mxCell id="pq8o-XT3RomVm82ZCN2M-12" value="" style="shape=cube;whiteSpace=wrap;html=1;boundedLbl=1;backgroundOutline=1;darkOpacity=0.05;darkOpacity2=0.1;size=16;rotation=0;shadow=0;" vertex="1" parent="1">
          <mxGeometry x="156" y="62.5" width="20" height="45" as="geometry" />
        </mxCell>
        <mxCell id="pq8o-XT3RomVm82ZCN2M-15" value="" style="shape=cube;whiteSpace=wrap;html=1;boundedLbl=1;backgroundOutline=1;darkOpacity=0.05;darkOpacity2=0.1;size=20;rotation=0;" vertex="1" parent="1">
          <mxGeometry x="228" y="25" width="30" height="120" as="geometry" />
        </mxCell>
        <mxCell id="pq8o-XT3RomVm82ZCN2M-16" value="" style="shape=cube;whiteSpace=wrap;html=1;boundedLbl=1;backgroundOutline=1;darkOpacity=0.05;darkOpacity2=0.1;size=20;rotation=0;" vertex="1" parent="1">
          <mxGeometry x="228" y="155" width="30" height="120" as="geometry" />
        </mxCell>
        <mxCell id="pq8o-XT3RomVm82ZCN2M-17" value="" style="shape=cube;whiteSpace=wrap;html=1;boundedLbl=1;backgroundOutline=1;darkOpacity=0.05;darkOpacity2=0.1;size=20;rotation=0;" vertex="1" parent="1">
          <mxGeometry x="228" y="305" width="30" height="120" as="geometry" />
        </mxCell>
        <mxCell id="pq8o-XT3RomVm82ZCN2M-18" value="" style="endArrow=none;dashed=1;html=1;dashPattern=1 3;strokeWidth=2;rounded=0;entryX=0.333;entryY=0.5;entryDx=0;entryDy=0;entryPerimeter=0;exitX=1.119;exitY=0.345;exitDx=0;exitDy=0;exitPerimeter=0;" edge="1" parent="1" source="pq8o-XT3RomVm82ZCN2M-12" target="pq8o-XT3RomVm82ZCN2M-15">
          <mxGeometry width="50" height="50" relative="1" as="geometry">
            <mxPoint x="178" y="75" as="sourcePoint" />
            <mxPoint x="228" y="25" as="targetPoint" />
          </mxGeometry>
        </mxCell>
        <mxCell id="pq8o-XT3RomVm82ZCN2M-19" value="" style="endArrow=none;dashed=1;html=1;dashPattern=1 3;strokeWidth=2;rounded=0;" edge="1" parent="1">
          <mxGeometry width="50" height="50" relative="1" as="geometry">
            <mxPoint x="179" y="105" as="sourcePoint" />
            <mxPoint x="239" y="85" as="targetPoint" />
          </mxGeometry>
        </mxCell>
        <mxCell id="pq8o-XT3RomVm82ZCN2M-21" value="" style="endArrow=none;dashed=1;html=1;dashPattern=1 3;strokeWidth=2;rounded=0;exitX=0.342;exitY=0.02;exitDx=0;exitDy=0;exitPerimeter=0;" edge="1" parent="1" source="pq8o-XT3RomVm82ZCN2M-12">
          <mxGeometry width="50" height="50" relative="1" as="geometry">
            <mxPoint x="308" y="65" as="sourcePoint" />
            <mxPoint x="238" y="85" as="targetPoint" />
          </mxGeometry>
        </mxCell>
        <mxCell id="pq8o-XT3RomVm82ZCN2M-22" value="" style="endArrow=none;dashed=1;html=1;dashPattern=1 3;strokeWidth=2;rounded=0;exitX=1.121;exitY=0.589;exitDx=0;exitDy=0;exitPerimeter=0;" edge="1" parent="1" source="pq8o-XT3RomVm82ZCN2M-12">
          <mxGeometry width="50" height="50" relative="1" as="geometry">
            <mxPoint x="188" y="95" as="sourcePoint" />
            <mxPoint x="238" y="85" as="targetPoint" />
          </mxGeometry>
        </mxCell>
        <mxCell id="pq8o-XT3RomVm82ZCN2M-33" value="" style="shape=cube;whiteSpace=wrap;html=1;boundedLbl=1;backgroundOutline=1;darkOpacity=0.05;darkOpacity2=0.1;size=20;rotation=0;" vertex="1" parent="1">
          <mxGeometry x="330" y="160" width="30" height="120" as="geometry" />
        </mxCell>
        <mxCell id="pq8o-XT3RomVm82ZCN2M-34" value="" style="shape=cube;whiteSpace=wrap;html=1;boundedLbl=1;backgroundOutline=1;darkOpacity=0.05;darkOpacity2=0.1;size=20;rotation=0;" vertex="1" parent="1">
          <mxGeometry x="320" y="160" width="30" height="120" as="geometry" />
        </mxCell>
        <mxCell id="pq8o-XT3RomVm82ZCN2M-35" value="" style="shape=cube;whiteSpace=wrap;html=1;boundedLbl=1;backgroundOutline=1;darkOpacity=0.05;darkOpacity2=0.1;size=20;rotation=0;" vertex="1" parent="1">
          <mxGeometry x="310" y="160" width="30" height="120" as="geometry" />
        </mxCell>
        <mxCell id="pq8o-XT3RomVm82ZCN2M-36" value="" style="shape=cube;whiteSpace=wrap;html=1;boundedLbl=1;backgroundOutline=1;darkOpacity=0.05;darkOpacity2=0.1;size=20;rotation=0;" vertex="1" parent="1">
          <mxGeometry x="300" y="160" width="30" height="120" as="geometry" />
        </mxCell>
        <mxCell id="pq8o-XT3RomVm82ZCN2M-37" value="" style="shape=cube;whiteSpace=wrap;html=1;boundedLbl=1;backgroundOutline=1;darkOpacity=0.05;darkOpacity2=0.1;size=20;rotation=0;" vertex="1" parent="1">
          <mxGeometry x="290" y="160" width="30" height="120" as="geometry" />
        </mxCell>
        <mxCell id="pq8o-XT3RomVm82ZCN2M-45" value="" style="shape=cube;whiteSpace=wrap;html=1;boundedLbl=1;backgroundOutline=1;darkOpacity=0.05;darkOpacity2=0.1;size=16;rotation=0;shadow=0;" vertex="1" parent="1">
          <mxGeometry x="156" y="192.5" width="20" height="45" as="geometry" />
        </mxCell>
        <mxCell id="pq8o-XT3RomVm82ZCN2M-46" value="" style="endArrow=none;dashed=1;html=1;dashPattern=1 3;strokeWidth=2;rounded=0;entryX=0.333;entryY=0.5;entryDx=0;entryDy=0;entryPerimeter=0;exitX=1.119;exitY=0.345;exitDx=0;exitDy=0;exitPerimeter=0;" edge="1" parent="1" source="pq8o-XT3RomVm82ZCN2M-45">
          <mxGeometry width="50" height="50" relative="1" as="geometry">
            <mxPoint x="178" y="205" as="sourcePoint" />
            <mxPoint x="238" y="215" as="targetPoint" />
          </mxGeometry>
        </mxCell>
        <mxCell id="pq8o-XT3RomVm82ZCN2M-47" value="" style="endArrow=none;dashed=1;html=1;dashPattern=1 3;strokeWidth=2;rounded=0;" edge="1" parent="1">
          <mxGeometry width="50" height="50" relative="1" as="geometry">
            <mxPoint x="179" y="235" as="sourcePoint" />
            <mxPoint x="239" y="215" as="targetPoint" />
          </mxGeometry>
        </mxCell>
        <mxCell id="pq8o-XT3RomVm82ZCN2M-48" value="" style="endArrow=none;dashed=1;html=1;dashPattern=1 3;strokeWidth=2;rounded=0;exitX=0.342;exitY=0.02;exitDx=0;exitDy=0;exitPerimeter=0;" edge="1" parent="1" source="pq8o-XT3RomVm82ZCN2M-45">
          <mxGeometry width="50" height="50" relative="1" as="geometry">
            <mxPoint x="308" y="195" as="sourcePoint" />
            <mxPoint x="238" y="215" as="targetPoint" />
          </mxGeometry>
        </mxCell>
        <mxCell id="pq8o-XT3RomVm82ZCN2M-49" value="" style="endArrow=none;dashed=1;html=1;dashPattern=1 3;strokeWidth=2;rounded=0;exitX=1.121;exitY=0.589;exitDx=0;exitDy=0;exitPerimeter=0;" edge="1" parent="1" source="pq8o-XT3RomVm82ZCN2M-45">
          <mxGeometry width="50" height="50" relative="1" as="geometry">
            <mxPoint x="188" y="225" as="sourcePoint" />
            <mxPoint x="238" y="215" as="targetPoint" />
          </mxGeometry>
        </mxCell>
        <mxCell id="pq8o-XT3RomVm82ZCN2M-50" value="" style="shape=cube;whiteSpace=wrap;html=1;boundedLbl=1;backgroundOutline=1;darkOpacity=0.05;darkOpacity2=0.1;size=16;rotation=0;shadow=0;" vertex="1" parent="1">
          <mxGeometry x="156" y="341.5" width="20" height="45" as="geometry" />
        </mxCell>
        <mxCell id="pq8o-XT3RomVm82ZCN2M-51" value="" style="endArrow=none;dashed=1;html=1;dashPattern=1 3;strokeWidth=2;rounded=0;entryX=0.333;entryY=0.5;entryDx=0;entryDy=0;entryPerimeter=0;exitX=1.119;exitY=0.345;exitDx=0;exitDy=0;exitPerimeter=0;" edge="1" parent="1" source="pq8o-XT3RomVm82ZCN2M-50">
          <mxGeometry width="50" height="50" relative="1" as="geometry">
            <mxPoint x="178" y="354" as="sourcePoint" />
            <mxPoint x="238" y="364" as="targetPoint" />
          </mxGeometry>
        </mxCell>
        <mxCell id="pq8o-XT3RomVm82ZCN2M-52" value="" style="endArrow=none;dashed=1;html=1;dashPattern=1 3;strokeWidth=2;rounded=0;" edge="1" parent="1">
          <mxGeometry width="50" height="50" relative="1" as="geometry">
            <mxPoint x="179" y="384" as="sourcePoint" />
            <mxPoint x="239" y="364" as="targetPoint" />
          </mxGeometry>
        </mxCell>
        <mxCell id="pq8o-XT3RomVm82ZCN2M-53" value="" style="endArrow=none;dashed=1;html=1;dashPattern=1 3;strokeWidth=2;rounded=0;exitX=0.342;exitY=0.02;exitDx=0;exitDy=0;exitPerimeter=0;" edge="1" parent="1" source="pq8o-XT3RomVm82ZCN2M-50">
          <mxGeometry width="50" height="50" relative="1" as="geometry">
            <mxPoint x="308" y="344" as="sourcePoint" />
            <mxPoint x="238" y="364" as="targetPoint" />
          </mxGeometry>
        </mxCell>
        <mxCell id="pq8o-XT3RomVm82ZCN2M-54" value="" style="endArrow=none;dashed=1;html=1;dashPattern=1 3;strokeWidth=2;rounded=0;exitX=1.121;exitY=0.589;exitDx=0;exitDy=0;exitPerimeter=0;" edge="1" parent="1" source="pq8o-XT3RomVm82ZCN2M-50">
          <mxGeometry width="50" height="50" relative="1" as="geometry">
            <mxPoint x="188" y="374" as="sourcePoint" />
            <mxPoint x="238" y="364" as="targetPoint" />
          </mxGeometry>
        </mxCell>
        <mxCell id="pq8o-XT3RomVm82ZCN2M-55" value="" style="shape=curlyBracket;whiteSpace=wrap;html=1;rounded=1;labelPosition=left;verticalLabelPosition=middle;align=right;verticalAlign=middle;" vertex="1" parent="1">
          <mxGeometry x="80" y="15" width="20" height="420" as="geometry" />
        </mxCell>
        <mxCell id="pq8o-XT3RomVm82ZCN2M-56" value="" style="endArrow=none;dashed=1;html=1;dashPattern=1 3;strokeWidth=2;rounded=0;" edge="1" parent="1">
          <mxGeometry width="50" height="50" relative="1" as="geometry">
            <mxPoint x="113.82999999999998" y="298" as="sourcePoint" />
            <mxPoint x="113.82999999999998" y="278" as="targetPoint" />
          </mxGeometry>
        </mxCell>
        <mxCell id="pq8o-XT3RomVm82ZCN2M-57" value="" style="endArrow=none;dashed=1;html=1;dashPattern=1 3;strokeWidth=2;rounded=0;" edge="1" parent="1">
          <mxGeometry width="50" height="50" relative="1" as="geometry">
            <mxPoint x="164.82999999999998" y="298" as="sourcePoint" />
            <mxPoint x="164.82999999999998" y="278" as="targetPoint" />
          </mxGeometry>
        </mxCell>
        <mxCell id="pq8o-XT3RomVm82ZCN2M-58" value="" style="endArrow=none;dashed=1;html=1;dashPattern=1 3;strokeWidth=2;rounded=0;" edge="1" parent="1">
          <mxGeometry width="50" height="50" relative="1" as="geometry">
            <mxPoint x="242" y="298" as="sourcePoint" />
            <mxPoint x="242" y="278" as="targetPoint" />
          </mxGeometry>
        </mxCell>
        <mxCell id="pq8o-XT3RomVm82ZCN2M-59" value="" style="shape=curlyBracket;whiteSpace=wrap;html=1;rounded=1;flipH=1;labelPosition=right;verticalLabelPosition=middle;align=left;verticalAlign=middle;" vertex="1" parent="1">
          <mxGeometry x="258" y="15" width="20" height="420" as="geometry" />
        </mxCell>
        <mxCell id="pq8o-XT3RomVm82ZCN2M-63" value="" style="shape=cube;whiteSpace=wrap;html=1;boundedLbl=1;backgroundOutline=1;darkOpacity=0.05;darkOpacity2=0.1;size=10;rotation=0;shadow=0;" vertex="1" parent="1">
          <mxGeometry x="392" y="210" width="20" height="30" as="geometry" />
        </mxCell>
        <mxCell id="pq8o-XT3RomVm82ZCN2M-64" value="" style="shape=cube;whiteSpace=wrap;html=1;boundedLbl=1;backgroundOutline=1;darkOpacity=0.05;darkOpacity2=0.1;size=10;rotation=0;shadow=0;" vertex="1" parent="1">
          <mxGeometry x="390" y="210" width="20" height="30" as="geometry" />
        </mxCell>
        <mxCell id="pq8o-XT3RomVm82ZCN2M-65" value="" style="shape=cube;whiteSpace=wrap;html=1;boundedLbl=1;backgroundOutline=1;darkOpacity=0.05;darkOpacity2=0.1;size=10;rotation=0;shadow=0;" vertex="1" parent="1">
          <mxGeometry x="388" y="210" width="20" height="30" as="geometry" />
        </mxCell>
        <mxCell id="pq8o-XT3RomVm82ZCN2M-66" value="" style="shape=cube;whiteSpace=wrap;html=1;boundedLbl=1;backgroundOutline=1;darkOpacity=0.05;darkOpacity2=0.1;size=10;rotation=0;shadow=0;" vertex="1" parent="1">
          <mxGeometry x="386" y="210" width="20" height="30" as="geometry" />
        </mxCell>
        <mxCell id="pq8o-XT3RomVm82ZCN2M-68" value="" style="endArrow=none;html=1;rounded=0;entryX=0;entryY=0;entryDx=5;entryDy=0;entryPerimeter=0;exitX=0;exitY=0;exitDx=15;exitDy=30.000000000000004;exitPerimeter=0;" edge="1" parent="1">
          <mxGeometry width="50" height="50" relative="1" as="geometry">
            <mxPoint x="402" y="240.00000000000006" as="sourcePoint" />
            <mxPoint x="392" y="210" as="targetPoint" />
            <Array as="points">
              <mxPoint x="402" y="220" />
            </Array>
          </mxGeometry>
        </mxCell>
        <mxCell id="pq8o-XT3RomVm82ZCN2M-69" value="" style="endArrow=none;html=1;rounded=0;entryX=0;entryY=0;entryDx=5;entryDy=0;entryPerimeter=0;exitX=0;exitY=0;exitDx=15;exitDy=30.000000000000004;exitPerimeter=0;" edge="1" parent="1">
          <mxGeometry width="50" height="50" relative="1" as="geometry">
            <mxPoint x="404" y="240.00000000000006" as="sourcePoint" />
            <mxPoint x="394" y="210" as="targetPoint" />
            <Array as="points">
              <mxPoint x="404" y="220" />
            </Array>
          </mxGeometry>
        </mxCell>
        <mxCell id="pq8o-XT3RomVm82ZCN2M-70" value="" style="endArrow=none;html=1;rounded=0;entryX=0;entryY=0;entryDx=5;entryDy=0;entryPerimeter=0;exitX=0;exitY=0;exitDx=15;exitDy=30.000000000000004;exitPerimeter=0;" edge="1" parent="1">
          <mxGeometry width="50" height="50" relative="1" as="geometry">
            <mxPoint x="400" y="240.00000000000006" as="sourcePoint" />
            <mxPoint x="390" y="210" as="targetPoint" />
            <Array as="points">
              <mxPoint x="400" y="220" />
            </Array>
          </mxGeometry>
        </mxCell>
        <mxCell id="pq8o-XT3RomVm82ZCN2M-71" value="" style="endArrow=none;html=1;rounded=0;entryX=0;entryY=0;entryDx=5;entryDy=0;entryPerimeter=0;exitX=0;exitY=0;exitDx=15;exitDy=30.000000000000004;exitPerimeter=0;" edge="1" parent="1">
          <mxGeometry width="50" height="50" relative="1" as="geometry">
            <mxPoint x="398" y="240.00000000000006" as="sourcePoint" />
            <mxPoint x="388" y="210" as="targetPoint" />
            <Array as="points">
              <mxPoint x="398" y="220" />
            </Array>
          </mxGeometry>
        </mxCell>
        <mxCell id="pq8o-XT3RomVm82ZCN2M-72" value="" style="shape=cube;whiteSpace=wrap;html=1;boundedLbl=1;backgroundOutline=1;darkOpacity=0.05;darkOpacity2=0.1;size=20;rotation=0;" vertex="1" parent="1">
          <mxGeometry x="530" y="160" width="30" height="120" as="geometry" />
        </mxCell>
        <mxCell id="pq8o-XT3RomVm82ZCN2M-73" value="" style="shape=cube;whiteSpace=wrap;html=1;boundedLbl=1;backgroundOutline=1;darkOpacity=0.05;darkOpacity2=0.1;size=20;rotation=0;" vertex="1" parent="1">
          <mxGeometry x="520" y="160" width="30" height="120" as="geometry" />
        </mxCell>
        <mxCell id="pq8o-XT3RomVm82ZCN2M-74" value="" style="shape=cube;whiteSpace=wrap;html=1;boundedLbl=1;backgroundOutline=1;darkOpacity=0.05;darkOpacity2=0.1;size=20;rotation=0;" vertex="1" parent="1">
          <mxGeometry x="510" y="160" width="30" height="120" as="geometry" />
        </mxCell>
        <mxCell id="pq8o-XT3RomVm82ZCN2M-75" value="" style="shape=cube;whiteSpace=wrap;html=1;boundedLbl=1;backgroundOutline=1;darkOpacity=0.05;darkOpacity2=0.1;size=20;rotation=0;" vertex="1" parent="1">
          <mxGeometry x="500" y="160" width="30" height="120" as="geometry" />
        </mxCell>
        <mxCell id="pq8o-XT3RomVm82ZCN2M-76" value="" style="shape=cube;whiteSpace=wrap;html=1;boundedLbl=1;backgroundOutline=1;darkOpacity=0.05;darkOpacity2=0.1;size=20;rotation=0;" vertex="1" parent="1">
          <mxGeometry x="490" y="160" width="30" height="120" as="geometry" />
        </mxCell>
        <mxCell id="pq8o-XT3RomVm82ZCN2M-77" value="" style="shape=cube;whiteSpace=wrap;html=1;boundedLbl=1;backgroundOutline=1;darkOpacity=0.05;darkOpacity2=0.1;size=20;rotation=0;" vertex="1" parent="1">
          <mxGeometry x="480" y="160" width="30" height="120" as="geometry" />
        </mxCell>
        <mxCell id="pq8o-XT3RomVm82ZCN2M-78" value="" style="shape=cube;whiteSpace=wrap;html=1;boundedLbl=1;backgroundOutline=1;darkOpacity=0.05;darkOpacity2=0.1;size=20;rotation=0;" vertex="1" parent="1">
          <mxGeometry x="470" y="160" width="30" height="120" as="geometry" />
        </mxCell>
        <mxCell id="pq8o-XT3RomVm82ZCN2M-79" value="" style="shape=cube;whiteSpace=wrap;html=1;boundedLbl=1;backgroundOutline=1;darkOpacity=0.05;darkOpacity2=0.1;size=20;rotation=0;" vertex="1" parent="1">
          <mxGeometry x="460" y="160" width="30" height="120" as="geometry" />
        </mxCell>
        <mxCell id="pq8o-XT3RomVm82ZCN2M-81" value="" style="endArrow=none;dashed=1;html=1;dashPattern=1 3;strokeWidth=2;rounded=0;entryX=0.333;entryY=0.5;entryDx=0;entryDy=0;entryPerimeter=0;exitX=1.133;exitY=0.326;exitDx=0;exitDy=0;exitPerimeter=0;" edge="1" parent="1" source="pq8o-XT3RomVm82ZCN2M-64">
          <mxGeometry width="50" height="50" relative="1" as="geometry">
            <mxPoint x="409" y="209" as="sourcePoint" />
            <mxPoint x="469" y="216" as="targetPoint" />
          </mxGeometry>
        </mxCell>
        <mxCell id="pq8o-XT3RomVm82ZCN2M-82" value="" style="endArrow=none;dashed=1;html=1;dashPattern=1 3;strokeWidth=2;rounded=0;exitX=1.133;exitY=1.007;exitDx=0;exitDy=0;exitPerimeter=0;" edge="1" parent="1" source="pq8o-XT3RomVm82ZCN2M-64">
          <mxGeometry width="50" height="50" relative="1" as="geometry">
            <mxPoint x="410" y="236" as="sourcePoint" />
            <mxPoint x="470" y="216" as="targetPoint" />
          </mxGeometry>
        </mxCell>
        <mxCell id="pq8o-XT3RomVm82ZCN2M-83" value="" style="endArrow=none;dashed=1;html=1;dashPattern=1 3;strokeWidth=2;rounded=0;exitX=0.589;exitY=-0.022;exitDx=0;exitDy=0;exitPerimeter=0;" edge="1" parent="1" source="pq8o-XT3RomVm82ZCN2M-63">
          <mxGeometry width="50" height="50" relative="1" as="geometry">
            <mxPoint x="394" y="194" as="sourcePoint" />
            <mxPoint x="469" y="216" as="targetPoint" />
          </mxGeometry>
        </mxCell>
        <mxCell id="pq8o-XT3RomVm82ZCN2M-84" value="" style="endArrow=none;dashed=1;html=1;dashPattern=1 3;strokeWidth=2;rounded=0;exitX=1.128;exitY=0.737;exitDx=0;exitDy=0;exitPerimeter=0;" edge="1" parent="1" source="pq8o-XT3RomVm82ZCN2M-64">
          <mxGeometry width="50" height="50" relative="1" as="geometry">
            <mxPoint x="409" y="220" as="sourcePoint" />
            <mxPoint x="469" y="216" as="targetPoint" />
          </mxGeometry>
        </mxCell>
      </root>
    </mxGraphModel>
  </diagram>
</mxfile>
